<svg xmlns="http://www.w3.org/2000/svg" width="1400" height="900" viewBox="0 0 1400 900">
<defs>
  <linearGradient id="g" x1="0" y1="0" x2="1" y2="1">
    <stop offset="0" stop-color="#3b1d5a"/>
    <stop offset="1" stop-color="#c83f82"/>
  </linearGradient>
  <radialGradient id="r" cx="25%" cy="30%" r="70%">
    <stop offset="0" stop-color="rgba(255,255,255,.22)"/>
    <stop offset="1" stop-color="rgba(255,255,255,0)"/>
  </radialGradient>
</defs>
<rect width="1400" height="900" rx="40" fill="url(#g)"/>
<rect width="1400" height="900" rx="40" fill="url(#r)"/>
<g opacity=".18" fill="#fff">
  <circle cx="220" cy="220" r="140"/><circle cx="1180" cy="220" r="180"/>
  <circle cx="1120" cy="720" r="220"/>
</g>
<g opacity=".92">
  <g transform="translate(210 160)">
    <rect x="0" y="0" width="360" height="560" rx="24" fill="rgba(255,255,255,.12)" stroke="rgba(255,255,255,.28)"/>
    <g fill="rgba(255,255,255,.18)">
      <rect x="34" y="44" width="292" height="26" rx="13"/>
      <rect x="34" y="92" width="220" height="18" rx="9"/>
      <rect x="34" y="140" width="292" height="18" rx="9"/>
    </g>
    <g fill="rgba(255,255,255,.26)">
      <rect x="34" y="210" width="292" height="24" rx="12"/>
<rect x="34" y="254" width="292" height="24" rx="12"/>
<rect x="34" y="298" width="292" height="24" rx="12"/>
<rect x="34" y="342" width="292" height="24" rx="12"/>
<rect x="34" y="386" width="292" height="24" rx="12"/>
<rect x="34" y="430" width="292" height="24" rx="12"/>
<rect x="34" y="474" width="292" height="24" rx="12"/>
    </g>
  </g>
  <g transform="translate(640 160)">
    <rect x="0" y="0" width="550" height="560" rx="24" fill="rgba(255,255,255,.10)" stroke="rgba(255,255,255,.26)"/>
    <g stroke="rgba(255,255,255,.55)" stroke-width="3" fill="none" opacity=".7">
      <path d="M70 140 C180 70, 250 220, 360 150 S 520 180, 480 260"/>
      <path d="M70 220 C220 160, 260 300, 380 240 S 520 260, 480 340"/>
      <path d="M70 300 C220 240, 270 380, 410 330 S 540 330, 480 420"/>
      <path d="M70 380 C220 320, 290 460, 420 420 S 560 420, 480 520"/>
    </g>
    <g fill="#fff" opacity=".75">
      <circle cx="70" cy="140" r="7"/><circle cx="360" cy="150" r="7"/><circle cx="480" cy="260" r="7"/>
      <circle cx="70" cy="220" r="7"/><circle cx="380" cy="240" r="7"/><circle cx="480" cy="340" r="7"/>
      <circle cx="70" cy="300" r="7"/><circle cx="410" cy="330" r="7"/><circle cx="480" cy="420" r="7"/>
      <circle cx="70" cy="380" r="7"/><circle cx="420" cy="420" r="7"/><circle cx="480" cy="520" r="7"/>
    </g>
  </g>
</g>
</svg>