<?xml version="1.0" encoding="UTF-8"?>
<svg version="1.1" xmlns="http://www.w3.org/2000/svg" width="225" height="225">
<path d="M0 0 C74.25 0 148.5 0 225 0 C225 74.25 225 148.5 225 225 C150.75 225 76.5 225 0 225 C0 150.75 0 76.5 0 0 Z " fill="#FECB4D" transform="translate(0,0)"/>
<path d="M0 0 C7.55797206 4.68012885 11.23600302 9.87207156 14.03125 18.2578125 C15.00195655 28.86186 14.40822426 37.26247795 8.03125 46.2578125 C3.29928456 51.8060144 -2.36108203 54.55386323 -9.5 55.64453125 C-17.37033158 56.1533889 -23.52523261 53.69772522 -29.96875 49.2578125 C-36.00635564 43.37202286 -38.19003732 36.79454868 -38.40014648 28.48120117 C-38.4235829 18.98382658 -37.9634828 11.7864241 -31.32421875 4.4375 C-22.56664886 -3.74677525 -10.71125121 -5.54967001 0 0 Z " fill="#050503" transform="translate(123.96875,82.7421875)"/>
<path d="M0 0 C4.29 0 8.58 0 13 0 C13.01981934 1.00377686 13.03963867 2.00755371 13.06005859 3.04174805 C13.13633749 6.77864966 13.22501986 10.51517317 13.31738281 14.25170898 C13.35558072 15.8665417 13.39044945 17.48145684 13.421875 19.09643555 C13.46772609 21.42266217 13.52568584 23.74832592 13.5859375 26.07421875 C13.59748871 26.79212082 13.60903992 27.51002289 13.62094116 28.24967957 C13.77109813 33.39097657 14.63240181 37.03065861 17.5625 41.25 C21.16854425 43.83895484 24.61173822 44.19808126 29 44 C33.25859389 42.50160585 35.76914935 40.91941707 38 37 C38.32481069 34.17629288 38.48816805 31.56053312 38.51171875 28.734375 C38.52966995 27.94097717 38.54762115 27.14757935 38.56611633 26.33013916 C38.62016926 23.80347969 38.65409812 21.27700856 38.6875 18.75 C38.7206776 17.03382799 38.75516767 15.31768081 38.79101562 13.6015625 C38.87589255 9.40117768 38.94272721 5.20084823 39 1 C43.29 1 47.58 1 52 1 C52.09958538 6.10451702 52.17180331 11.20845677 52.21972656 16.3137207 C52.2397241 18.04689395 52.26693148 19.78000075 52.30175781 21.51293945 C52.69199424 41.44369103 52.69199424 41.44369103 45.625 49.8125 C38.36897655 55.85918621 32.57346339 58.56071699 23.13671875 58.375 C16.53281749 57.5854925 11.14417347 54.59681355 6.625 49.75 C-0.8235844 39.48503542 -0.49643719 30.20007525 -0.25 17.9375 C-0.22990621 16.19598406 -0.21166053 14.45444576 -0.1953125 12.71289062 C-0.15153994 8.47470223 -0.08267248 4.23760079 0 0 Z " fill="#070603" transform="translate(147,80)"/>
<path d="M0 0 C4.29 0 8.58 0 13 0 C13.03738281 1.60230469 13.07476562 3.20460938 13.11328125 4.85546875 C13.17894748 6.96616899 13.24539459 9.07684503 13.3125 11.1875 C13.33505859 12.24259766 13.35761719 13.29769531 13.38085938 14.38476562 C13.41630859 15.40634766 13.45175781 16.42792969 13.48828125 17.48046875 C13.51446533 18.41785889 13.54064941 19.35524902 13.56762695 20.32104492 C14.07702876 23.47726517 15.15977232 25.40583147 17 28 C21.21788426 30.87901229 26.09084328 30.7808265 31 30 C34.12177233 28.31712073 36.39137035 26.2172593 38 23 C38.15222973 21.33434251 38.24917215 19.66343504 38.31640625 17.9921875 C38.37924805 16.51298828 38.37924805 16.51298828 38.44335938 15.00390625 C38.48267578 13.97136719 38.52199219 12.93882813 38.5625 11.875 C38.62727539 10.31458984 38.62727539 10.31458984 38.69335938 8.72265625 C38.79962768 6.1486017 38.90033527 3.57431869 39 1 C43.29 1 47.58 1 52 1 C52.10876503 4.64664964 52.1876876 8.28999921 52.25 11.9375 C52.30027344 13.46987305 52.30027344 13.46987305 52.3515625 15.03320312 C52.47284501 24.52355988 50.02090741 31.51932463 43.5859375 38.55859375 C40.8236444 41.06915078 37.79528554 43 34 43 C34 47.95 34 52.9 34 58 C28.72 58 23.44 58 18 58 C18 53.05 18 48.1 18 43 C16.68 42.67 15.36 42.34 14 42 C7.82063754 38.64165084 3.79397699 33.82875625 0.8359375 27.515625 C-0.42165626 22.22667929 -0.20789961 17.03898223 -0.125 11.625 C-0.11597656 10.50738281 -0.10695313 9.38976562 -0.09765625 8.23828125 C-0.07418457 5.49209488 -0.03831655 2.74601937 0 0 Z " fill="#050403" transform="translate(26,80)"/>
<path d="M0 0 C3.50188669 2.274259 4.99241823 4.30635308 6.25 8.375 C6.91015475 14.61392725 6.99094451 20.08607845 3.25 25.375 C-0.24397878 29.17727102 -3.52411059 30.18887295 -8.53515625 30.5390625 C-12.16238553 30.27037885 -14.10363842 28.76932714 -16.75 26.375 C-21.20263322 20.42040199 -20.58815163 13.43720353 -19.75 6.375 C-18.21471672 2.87796585 -15.9337011 1.24304747 -12.875 -1 C-8.24678083 -2.36124093 -4.28583834 -2.17463256 0 0 Z " fill="#F9C94D" transform="translate(118.75,94.625)"/>
</svg>
