<svg xmlns="http://www.w3.org/2000/svg" width="1400" height="900" viewBox="0 0 1400 900">
<defs>
  <linearGradient id="g" x1="0" y1="0" x2="1" y2="1">
    <stop offset="0" stop-color="#2a1a3d"/>
    <stop offset="1" stop-color="#c83f82"/>
  </linearGradient>
</defs>
<rect width="1400" height="900" rx="40" fill="url(#g)"/>
<g opacity=".18" fill="#fff">
  <circle cx="220" cy="220" r="170"/><circle cx="1150" cy="260" r="220"/><circle cx="1040" cy="760" r="260"/>
</g>
<g stroke="rgba(255,255,255,.55)" stroke-width="4" fill="none" opacity=".75">
  <path d="M160 620 C360 420, 480 720, 700 520 S 1040 420, 1240 560"/>
  <path d="M200 320 C420 240, 520 420, 720 330 S 1040 240, 1200 340"/>
  <path d="M260 740 C460 640, 520 820, 760 700 S 1080 620, 1240 740"/>
</g>
<g fill="#fff" opacity=".85">
  <circle cx="160" cy="620" r="10"/>
<circle cx="700" cy="520" r="10"/>
<circle cx="1240" cy="560" r="10"/>
<circle cx="200" cy="320" r="10"/>
<circle cx="720" cy="330" r="10"/>
<circle cx="1200" cy="340" r="10"/>
<circle cx="260" cy="740" r="10"/>
<circle cx="760" cy="700" r="10"/>
<circle cx="1240" cy="740" r="10"/>
</g>
<g fill="rgba(255,255,255,.14)">
  <rect x="180" y="120" width="1040" height="140" rx="28"/>
</g>
<text x="700" y="205" text-anchor="middle" font-family="system-ui,Segoe UI,Arial" font-size="46" fill="rgba(255,255,255,.92)" font-weight="800">Network Infrastructure</text>
</svg>